<svg width="18" height="17" viewBox="0 0 18 17" fill="none" xmlns="http://www.w3.org/2000/svg">
<path d="M0 0.75C0 0.34375 0.3125 0 0.75 0H2.15625C3 0 3.71875 0.625 3.875 1.4375L5.5 9.90625C5.5625 10.25 5.875 10.5 6.21875 10.5H15.25C15.6562 10.5 16 10.8438 16 11.25C16 11.6875 15.6562 12 15.25 12H6.21875C5.15625 12 4.21875 11.25 4.03125 10.1875L2.40625 1.71875C2.375 1.59375 2.28125 1.5 2.15625 1.5H0.75C0.3125 1.5 0 1.1875 0 0.75ZM4 14.5C4 13.9688 4.28125 13.5 4.75 13.2188C5.1875 12.9375 5.78125 12.9375 6.25 13.2188C6.6875 13.5 7 13.9688 7 14.5C7 15.0625 6.6875 15.5312 6.25 15.8125C5.78125 16.0938 5.1875 16.0938 4.75 15.8125C4.28125 15.5312 4 15.0625 4 14.5ZM14.5 13C15.0312 13 15.5 13.3125 15.7812 13.75C16.0625 14.2188 16.0625 14.8125 15.7812 15.25C15.5 15.7188 15.0312 16 14.5 16C13.9375 16 13.4688 15.7188 13.1875 15.25C12.9062 14.8125 12.9062 14.2188 13.1875 13.75C13.4688 13.3125 13.9375 13 14.5 13Z" fill="#64B1B5"/>
<path opacity="0.4" d="M3.75 1H16.5938C17.4062 1 18 1.78125 17.7812 2.59375L16.5 7.34375C16.25 8.34375 15.3438 9 14.3438 9H5.3125C4.84375 6.5 4.34375 3.96875 3.875 1.4375C3.84375 1.28125 3.8125 1.15625 3.75 1Z" fill="#64B1B5"/>
</svg>
