<svg width="26" height="25" viewBox="0 0 26 25" fill="none" xmlns="http://www.w3.org/2000/svg">
<path d="M19.6406 10.875L6.9375 23.5312C6.04688 24.4219 4.64062 24.4219 3.75 23.5312L2.15625 21.9375C1.26562 21.0469 1.26562 19.6406 2.15625 18.75L14.8125 6.04688L19.6406 10.875Z" fill="white"/>
<path opacity="0.4" d="M0 6.1875C0 6 0.140625 5.76562 0.328125 5.71875L3 4.6875L3.98438 2.0625C4.03125 1.82812 4.26562 1.6875 4.5 1.6875C4.6875 1.6875 4.92188 1.82812 4.96875 2.0625L6 4.6875L8.625 5.71875C8.85938 5.76562 9 6 9 6.1875C9 6.42188 8.85938 6.65625 8.625 6.70312L6 7.6875L4.96875 10.3594C4.92188 10.5469 4.6875 10.6875 4.5 10.6875C4.26562 10.6875 4.03125 10.5469 3.98438 10.3594L3 7.6875L0.328125 6.70312C0.140625 6.65625 0 6.42188 0 6.1875ZM9 3.1875C9 3.04688 9.09375 2.90625 9.23438 2.85938L10.9688 2.20312L11.625 0.421875C11.6719 0.28125 11.8125 0.1875 12 0.1875C12.1406 0.1875 12.2812 0.28125 12.3281 0.421875L12.9844 2.20312L14.7656 2.85938C14.9062 2.90625 15 3.04688 15 3.1875C15 3.375 14.9062 3.51562 14.7656 3.5625L12.9844 4.21875L12.3281 5.95312C12.2812 6.09375 12.1406 6.1875 12 6.1875C11.8125 6.1875 11.6719 6.09375 11.625 5.95312L10.9688 4.21875L9.23438 3.5625C9.09375 3.51562 9 3.375 9 3.1875ZM14.8125 6.04688C16.5469 4.3125 18.2812 2.57812 20.0156 0.890625C20.9062 0 22.3125 0 23.2031 0.890625L24.7969 2.48438C25.6875 3.375 25.6875 4.78125 24.7969 5.67188C23.1094 7.40625 21.375 9.14062 19.6406 10.875C19.0312 10.2188 18.375 9.60938 17.7656 9L22.6875 4.07812L21.6094 3L16.6875 7.92188C16.0781 7.3125 15.4219 6.65625 14.8125 6.04688ZM16.5 18.1875C16.5 18 16.6406 17.7656 16.8281 17.7188L19.5 16.6875L20.4844 14.0625C20.5312 13.8281 20.7656 13.6875 21 13.6875C21.1875 13.6875 21.4219 13.8281 21.4688 14.0625L22.5 16.6875L25.125 17.7188C25.3594 17.7656 25.5 18 25.5 18.1875C25.5 18.4219 25.3594 18.6562 25.125 18.7031L22.5 19.6875L21.4688 22.3594C21.4219 22.5469 21.1875 22.6875 21 22.6875C20.7656 22.6875 20.5312 22.5469 20.4844 22.3594L19.5 19.6875L16.8281 18.7031C16.6406 18.6562 16.5 18.4219 16.5 18.1875Z" fill="white"/>
</svg>
