<svg width="17" height="17" viewBox="0 0 17 17" fill="none" xmlns="http://www.w3.org/2000/svg">
<path d="M10.3125 12.0312C10.875 11.6562 11.3438 11.1562 11.75 10.625L15.6875 14.5938C16.0938 14.9688 16.0938 15.625 15.6875 16C15.3125 16.4062 14.6562 16.4062 14.2812 16L10.3125 12.0312Z" fill="#64B1B5"/>
<path opacity="0.4" d="M0 6.78125C0 4.46875 1.21875 2.34375 3.25 1.15625C5.25 0 7.71875 0 9.75 1.15625C11.75 2.34375 13 4.46875 13 6.78125C13 9.125 11.75 11.25 9.75 12.4375C7.71875 13.5938 5.25 13.5938 3.25 12.4375C1.21875 11.25 0 9.125 0 6.78125ZM11 6.78125C11 5.1875 10.125 3.71875 8.75 2.90625C7.34375 2.09375 5.625 2.09375 4.25 2.90625C2.84375 3.71875 2 5.1875 2 6.78125C2 8.40625 2.84375 9.875 4.25 10.6875C5.625 11.5 7.34375 11.5 8.75 10.6875C10.125 9.875 11 8.40625 11 6.78125Z" fill="#64B1B5"/>
</svg>
