<svg width="20" height="21" viewBox="0 0 20 21" fill="none" xmlns="http://www.w3.org/2000/svg">
<path opacity="0.4" d="M15.4688 3.35938C14.4922 2.42188 12.9688 2.42188 11.9922 3.35938L4.80469 10.5469C3.16406 12.1875 3.16406 14.8828 4.80469 16.5234C6.44531 18.1641 9.14062 18.1641 10.7812 16.5234L16.7188 10.5859C17.1484 10.1562 17.8125 10.1562 18.2422 10.5859C18.6719 11.0156 18.6719 11.6797 18.2422 12.1094L12.3047 18.0469C9.80469 20.5469 5.78125 20.5469 3.28125 18.0469C0.78125 15.5469 0.78125 11.5234 3.28125 9.02344L10.4688 1.83594C12.2656 0 15.1953 0 16.9922 1.83594C18.8281 3.63281 18.8281 6.5625 16.9922 8.35938L10.1172 15.2344C9.02344 16.3672 7.1875 16.3672 6.09375 15.2344C4.96094 14.1406 4.96094 12.3047 6.09375 11.2109L11.7188 5.58594C12.1484 5.15625 12.8125 5.15625 13.2422 5.58594C13.6719 6.01562 13.6719 6.67969 13.2422 7.10938L7.61719 12.7344C7.38281 13.0078 7.38281 13.4375 7.61719 13.7109C7.89062 13.9453 8.32031 13.9453 8.59375 13.7109L15.4688 6.83594C16.4062 5.85938 16.4062 4.33594 15.4688 3.35938Z" fill="#73838C"/>
</svg>
