<svg width="16" height="16" viewBox="0 0 16 16" fill="none" xmlns="http://www.w3.org/2000/svg">
<path d="M0 7C0 6.46875 0.4375 6 1 6H3C3.53125 6 4 6.46875 4 7V14C4 14.5625 3.53125 15 3 15H1C0.4375 15 0 14.5625 0 14V7Z" fill="#64B1B5"/>
<path opacity="0.4" d="M5 7.75C5 6.8125 5.40625 5.96875 6.125 5.40625L6.34375 5.21875C7.15625 4.53125 7.75 3.625 7.9375 2.5625L8 2.21875C8.15625 1.5 8.78125 1 9.46875 1C9.59375 1 9.6875 1.03125 9.78125 1.03125C10.5938 1.21875 11.125 2 10.9688 2.8125L10.875 3.15625C10.7188 4 10.4062 4.78125 10 5.5H14.5C15.3125 5.5 16 6.1875 16 7C16 7.59375 15.6562 8.09375 15.1875 8.34375C15.5312 8.625 15.75 9.03125 15.75 9.5C15.75 10.25 15.2188 10.8438 14.5312 11C14.6562 11.2188 14.75 11.4688 14.75 11.75C14.75 12.4375 14.3125 13 13.6875 13.1875C13.7188 13.2812 13.75 13.4062 13.75 13.5C13.75 14.3438 13.0625 15 12.25 15H9.1875C8.59375 15 8.03125 14.8438 7.53125 14.5L6.3125 13.7188C5.5 13.1562 5 12.2188 5 11.2188V10V8.5V7.75Z" fill="#64B1B5"/>
</svg>
