<svg width="20" height="16" viewBox="0 0 20 16" fill="none" xmlns="http://www.w3.org/2000/svg">
<path d="M10 0C10.4062 0 10.75 0.34375 10.75 0.75V1.09375C10.9375 1.125 11.125 1.1875 11.3125 1.21875C11.7188 1.34375 11.9375 1.75 11.8438 2.15625C11.7188 2.53125 11.3125 2.78125 10.9062 2.6875C10.5625 2.59375 10.25 2.53125 9.96875 2.53125C9.75 2.5 9.5 2.5625 9.375 2.65625C9.3125 2.6875 9.28125 2.71875 9.25 2.75C9.25 2.75 9.25 2.78125 9.25 2.84375C9.25 2.875 9.25 2.90625 9.34375 2.9375C9.53125 3.03125 9.78125 3.125 10.1875 3.25H10.2188C10.5625 3.375 11.0312 3.5 11.4062 3.75C11.8438 4 12.2188 4.46875 12.2188 5.15625C12.25 5.84375 11.875 6.34375 11.4062 6.65625C11.1875 6.78125 10.9688 6.875 10.7188 6.9375V7.25C10.7188 7.6875 10.4062 8 9.96875 8C9.5625 8 9.21875 7.6875 9.21875 7.25V6.90625C8.9375 6.84375 8.65625 6.75 8.4375 6.65625C8.375 6.65625 8.3125 6.625 8.25 6.59375C7.84375 6.46875 7.625 6.03125 7.78125 5.65625C7.90625 5.25 8.3125 5.03125 8.71875 5.1875C8.8125 5.21875 8.875 5.21875 8.9375 5.25C9.375 5.40625 9.6875 5.5 10 5.5C10.25 5.53125 10.4688 5.46875 10.5938 5.375C10.6562 5.34375 10.6875 5.3125 10.7188 5.28125C10.7188 5.28125 10.75 5.25 10.7188 5.15625C10.7188 5.125 10.7188 5.09375 10.5938 5.03125C10.4375 4.90625 10.1562 4.8125 9.75 4.6875H9.6875C9.375 4.5625 8.90625 4.4375 8.5625 4.21875C8.15625 3.96875 7.75 3.53125 7.71875 2.84375C7.71875 2.125 8.125 1.65625 8.59375 1.375C8.8125 1.25 9 1.15625 9.21875 1.125L9.25 0.75C9.25 0.34375 9.5625 0 10 0Z" fill="#64B1B5"/>
<path opacity="0.4" d="M0 3.25C0 2.5625 0.53125 2 1.25 2C1.9375 2 2.5 2.5625 2.5 3.25V4.5V7V8.28125C2.5 8.8125 2.6875 9.3125 3.0625 9.6875L4.65625 11.2812C4.9375 11.5312 5.34375 11.5938 5.625 11.375C6.03125 11.125 6.09375 10.5312 5.75 10.1875L5.28125 9.71875L4.28125 8.71875C3.875 8.34375 3.875 7.6875 4.28125 7.3125C4.65625 6.90625 5.3125 6.90625 5.6875 7.3125L6.6875 8.3125C6.84375 8.46875 7 8.625 7.15625 8.78125L7.96875 9.5625C8.625 10.2188 9 11.125 9 12.0625V14.5C9 15.3438 8.3125 16 7.5 16H5.40625C4.875 16 4.375 15.8125 4 15.4375L0.875 12.3125C0.3125 11.75 0 10.9688 0 10.1875V7V5V3.25ZM11 12.0625C11 11.125 11.3438 10.2188 12 9.5625C12.2812 9.3125 12.5312 9.0625 12.8125 8.78125L13.2812 8.3125L14.2812 7.3125C14.6562 6.90625 15.3125 6.90625 15.6875 7.3125C16.0938 7.6875 16.0938 8.34375 15.6875 8.71875L14.6875 9.71875L14.2188 10.1875C13.875 10.5312 13.9375 11.125 14.3438 11.375C14.625 11.5938 15.0312 11.5312 15.3125 11.2812L16.9062 9.6875C17.2812 9.3125 17.5 8.8125 17.5 8.28125V7V4.5V3.25C17.5 2.5625 18.0312 2 18.75 2C19.4375 2 20 2.5625 20 3.25V5V7V10.1875C20 10.9688 19.6562 11.75 19.0938 12.3125L16 15.4375C15.625 15.8125 15.0938 16 14.5625 16H12.5C11.6562 16 11 15.3438 11 14.5V12.0625Z" fill="#64B1B5"/>
</svg>
