<svg width="16" height="16" viewBox="0 0 16 16" fill="none" xmlns="http://www.w3.org/2000/svg">
<path d="M6.25 5C6.25 4.59375 6.5625 4.25 7 4.25H12C12.4062 4.25 12.75 4.59375 12.75 5C12.75 5.4375 12.4062 5.75 12 5.75H7C6.5625 5.75 6.25 5.4375 6.25 5ZM6.25 11C6.25 10.5938 6.5625 10.25 7 10.25H12C12.4062 10.25 12.75 10.5938 12.75 11C12.75 11.4375 12.4062 11.75 12 11.75H7C6.5625 11.75 6.25 11.4375 6.25 11ZM7 7.25H12C12.4062 7.25 12.75 7.59375 12.75 8C12.75 8.4375 12.4062 8.75 12 8.75H7C6.5625 8.75 6.25 8.4375 6.25 8C6.25 7.59375 6.5625 7.25 7 7.25Z" fill="#64B1B5"/>
<path opacity="0.4" d="M1 3C1 1.90625 1.875 1 3 1H13C14.0938 1 15 1.90625 15 3V13C15 14.125 14.0938 15 13 15H3C1.875 15 1 14.125 1 13V3ZM3 5C3 5.5625 3.4375 6 4 6C4.53125 6 5 5.5625 5 5C5 4.46875 4.53125 4 4 4C3.4375 4 3 4.46875 3 5ZM3 8C3 8.5625 3.4375 9 4 9C4.53125 9 5 8.5625 5 8C5 7.46875 4.53125 7 4 7C3.4375 7 3 7.46875 3 8ZM3 11C3 11.5625 3.4375 12 4 12C4.53125 12 5 11.5625 5 11C5 10.4688 4.53125 10 4 10C3.4375 10 3 10.4688 3 11ZM6.25 5C6.25 5.4375 6.5625 5.75 7 5.75H12C12.4062 5.75 12.75 5.4375 12.75 5C12.75 4.59375 12.4062 4.25 12 4.25H7C6.5625 4.25 6.25 4.59375 6.25 5ZM6.25 8C6.25 8.4375 6.5625 8.75 7 8.75H12C12.4062 8.75 12.75 8.4375 12.75 8C12.75 7.59375 12.4062 7.25 12 7.25H7C6.5625 7.25 6.25 7.59375 6.25 8ZM6.25 11C6.25 11.4375 6.5625 11.75 7 11.75H12C12.4062 11.75 12.75 11.4375 12.75 11C12.75 10.5938 12.4062 10.25 12 10.25H7C6.5625 10.25 6.25 10.5938 6.25 11Z" fill="#64B1B5"/>
</svg>
